<?xml version="1.0" standalone="no"?>
<!DOCTYPE svg PUBLIC "-//W3C//DTD SVG 20010904//EN"
 "http://www.w3.org/TR/2001/REC-SVG-20010904/DTD/svg10.dtd">
<svg version="1.0" xmlns="http://www.w3.org/2000/svg"
 width="1500.000000pt" height="1500.000000pt" viewBox="0 -394 1500.000000 1500.000000"
 preserveAspectRatio="xMidYMid meet">

<g transform="translate(0.000000,712.000000) scale(0.100000,-0.100000)"
fill="#000000" stroke="none">
<path d="M3566 7099 c-1116 -113 -1712 -716 -1806 -1824 -6 -76 -10 -838 -10
-2072 l0 -1953 715 0 715 0 2 1148 3 1147 615 3 615 2 25 47 c13 25 38 54 55
65 45 27 925 311 1148 370 l47 12 0 423 0 423 -1255 0 -1255 0 0 83 c1 288 61
488 185 612 107 107 257 164 481 184 144 12 2564 26 2564 14 0 -4 -13 -60 -29
-123 -64 -255 -80 -463 -81 -1018 0 -399 1 -423 18 -418 78 24 839 218 1082
276 168 39 311 73 318 76 9 2 12 42 12 152 0 574 165 893 527 1016 113 38 204
49 428 50 l210 1 3 -484 2 -483 23 5 c124 30 1353 247 1398 247 5 0 10 161 11
358 l3 357 220 -2 c270 -1 368 -18 508 -86 161 -78 291 -223 352 -391 28 -77
29 -78 59 -72 66 12 687 87 996 120 179 20 349 38 378 42 l53 6 -7 36 c-25
143 -61 290 -100 404 -224 659 -712 1063 -1454 1204 -253 48 -93 46 -4015 49
-2157 2 -3707 0 -3759 -6z"/>
<path d="M14280 5333 c-848 -28 -1955 -139 -3340 -334 -1508 -213 -2942 -504
-4410 -895 -782 -209 -1909 -555 -1929 -593 -6 -10 -35 -162 -66 -337 -103
-587 -153 -866 -215 -1219 -78 -442 -77 -431 -55 -455 10 -11 29 -20 43 -20
13 0 119 51 236 114 2579 1388 5333 2463 8111 3166 559 141 1329 314 1894 425
129 25 240 50 248 56 18 15 16 64 -3 83 -13 14 -46 16 -222 14 -114 -1 -245
-3 -292 -5z"/>
<path d="M12770 4614 c-548 -142 -1001 -264 -1202 -325 l-68 -21 0 -1509 0
-1509 715 0 715 0 0 1700 c0 1354 -3 1700 -12 1700 -7 -1 -74 -16 -148 -36z"/>
<path d="M10070 3816 c-315 -107 -612 -213 -922 -329 l-248 -91 0 -1073 0
-1073 715 0 715 0 0 1325 c0 729 -3 1325 -7 1325 -5 -1 -118 -38 -253 -84z"/>
<path d="M7640 2890 c-36 -16 -191 -84 -345 -151 -264 -115 -812 -363 -937
-425 l-58 -28 0 -518 0 -518 715 0 715 0 0 835 c0 662 -3 835 -12 834 -7 0
-42 -14 -78 -29z"/>
<path d="M2925 939 c-158 -14 -274 -86 -314 -195 -20 -51 -21 -76 -21 -389 l0
-335 130 0 130 0 0 314 c0 308 0 314 23 346 28 42 85 63 150 56 96 -10 144
-65 134 -152 -9 -81 -76 -124 -195 -124 -30 0 -52 -4 -50 -8 2 -5 70 -104 152
-220 l149 -212 158 0 158 0 -124 162 c-69 90 -125 165 -125 168 0 3 16 15 35
28 138 89 160 326 42 451 -81 85 -243 126 -432 110z"/>
<path d="M3963 939 c-71 -7 -152 -29 -207 -56 -43 -22 -122 -99 -150 -147 -75
-128 -83 -341 -17 -483 56 -119 156 -196 297 -229 98 -23 306 -15 388 15 126
45 213 128 258 243 27 68 36 245 18 327 -23 105 -90 206 -170 256 -97 61 -253
88 -417 74z m184 -214 c90 -27 143 -118 143 -244 -1 -122 -39 -204 -113 -243
-60 -32 -184 -32 -244 0 -81 42 -119 136 -111 270 7 120 52 190 139 217 59 18
125 18 186 0z"/>
<path d="M5960 938 c-144 -12 -247 -64 -306 -152 -58 -88 -64 -134 -64 -468
l0 -298 135 0 135 0 0 125 0 125 183 -2 182 -3 3 -123 3 -122 130 0 130 0 -3
333 -3 332 -26 56 c-43 90 -116 151 -219 180 -63 17 -191 25 -280 17z m191
-224 c57 -34 72 -64 77 -159 l5 -85 -187 0 -186 0 0 76 c0 76 16 130 46 155
50 42 184 49 245 13z"/>
<path d="M7360 939 c-90 -8 -140 -24 -197 -62 -59 -39 -108 -110 -122 -177 -7
-31 -11 -177 -11 -365 l0 -315 129 0 130 0 3 313 3 314 28 36 c30 40 74 57
145 57 l42 0 0 -360 0 -360 135 0 135 0 0 360 0 360 48 0 c64 -1 126 -30 149
-72 16 -29 18 -67 21 -341 l4 -307 130 0 129 0 -3 338 c-3 253 -7 346 -18 372
-23 60 -70 121 -116 150 -83 52 -142 61 -434 63 -146 1 -294 -1 -330 -4z"/>
<path d="M8765 939 c-145 -12 -250 -63 -312 -153 -54 -79 -56 -94 -60 -443
l-4 -323 130 0 130 0 3 123 3 122 185 0 185 0 3 -123 3 -122 129 0 130 0 0
300 c0 306 -6 373 -40 440 -20 40 -93 111 -136 133 -72 37 -221 57 -349 46z
m186 -225 c56 -33 71 -63 76 -158 l6 -86 -189 2 -189 3 1 75 c1 76 16 123 48
149 52 43 185 51 247 15z"/>
<path d="M12325 939 c-181 -15 -303 -102 -334 -239 -6 -25 -11 -183 -11 -362
l0 -318 130 0 130 0 0 303 c0 268 2 306 18 336 29 57 63 76 141 76 104 0 155
-45 155 -135 0 -89 -50 -129 -175 -139 l-76 -6 146 -207 c80 -114 151 -212
157 -218 7 -7 65 -10 163 -8 l153 3 -126 164 -125 163 47 32 c69 46 106 124
110 230 4 76 2 85 -30 146 -38 74 -89 118 -175 150 -69 26 -189 37 -298 29z"/>
<path d="M2015 915 c-125 -27 -195 -77 -236 -168 -24 -51 -24 -59 -27 -389
l-3 -338 130 0 131 0 2 177 3 178 233 3 232 2 0 100 0 100 -230 0 c-256 0
-252 -1 -230 65 22 68 48 75 268 75 l192 0 0 105 0 105 -202 -1 c-127 0 -226
-5 -263 -14z"/>
<path d="M4630 825 l0 -105 155 0 155 0 0 -350 0 -350 135 0 135 0 0 350 0
349 153 3 152 3 3 103 3 102 -446 0 -445 0 0 -105z"/>
<path d="M9542 911 c-98 -34 -150 -113 -139 -211 8 -70 24 -94 145 -227 163
-178 171 -192 136 -227 -12 -13 -41 -16 -145 -16 l-129 0 0 -105 0 -105 183 0
c213 0 266 11 328 67 67 60 84 163 41 248 -8 17 -67 88 -132 160 -146 162
-155 178 -124 209 12 13 39 16 125 16 l109 0 0 105 0 105 -172 0 c-141 -1
-183 -4 -226 -19z"/>
<path d="M10042 828 l3 -103 158 -3 157 -3 0 -349 0 -350 130 0 130 0 0 350 0
350 155 0 155 0 0 105 0 105 -445 0 -446 0 3 -102z"/>
<path d="M11359 914 c-243 -44 -369 -194 -369 -439 0 -140 40 -244 124 -323
109 -103 189 -124 504 -129 l243 -5 -3 103 -3 104 -240 5 c-217 5 -243 7 -274
25 -40 23 -67 59 -77 98 l-6 27 301 0 301 0 0 100 0 100 -299 0 -300 0 9 31
c12 42 37 68 85 90 35 16 68 19 273 19 l232 0 0 105 0 105 -212 -1 c-133 0
-241 -6 -289 -15z"/>
</g>
</svg>
