<?xml version="1.0" standalone="no"?>
<!DOCTYPE svg PUBLIC "-//W3C//DTD SVG 20010904//EN"
 "http://www.w3.org/TR/2001/REC-SVG-20010904/DTD/svg10.dtd">
<svg version="1.0" xmlns="http://www.w3.org/2000/svg"
 width="512.000000pt" height="512.000000pt" viewBox="0 0 512.000000 512.000000"
 preserveAspectRatio="xMidYMid meet">

<g transform="translate(0.000000,512.000000) scale(0.100000,-0.100000)"
fill="#000000" stroke="none">
<path d="M958 4793 c-21 -23 -108 -300 -108 -341 0 -18 8 -40 18 -49 9 -10
212 -80 457 -157 l439 -138 281 -221 c154 -121 284 -223 288 -227 5 -4 -23
-49 -62 -100 -81 -106 -88 -135 -43 -178 15 -15 153 -142 306 -282 l279 -255
-311 -305 c-191 -186 -312 -313 -313 -325 -1 -11 0 -29 1 -40 3 -34 360 -1538
372 -1568 6 -15 16 -31 22 -35 6 -4 331 -9 721 -12 l710 -5 38 -110 c20 -60
45 -116 54 -122 9 -7 31 -13 49 -13 32 0 725 199 763 219 23 13 41 41 41 65 0
9 -128 378 -285 820 l-285 803 135 278 c74 152 135 287 135 300 0 13 -8 32
-17 43 -10 11 -322 238 -693 503 -371 266 -781 558 -910 651 -290 208 -279
205 -375 80 -42 -55 -50 -61 -64 -48 -35 30 -589 465 -612 479 -37 24 -941
307 -981 307 -21 0 -41 -7 -50 -17z m533 -292 l410 -130 137 -107 c472 -371
481 -378 472 -394 -5 -8 -24 -32 -42 -52 l-33 -37 -295 234 -295 234 -155 49
c-85 28 -265 85 -400 127 -135 42 -249 81 -253 85 -10 9 23 120 35 120 5 0
194 -58 419 -129z m2130 -1122 c448 -320 824 -590 835 -599 22 -16 22 -16
-107 -281 -98 -200 -128 -270 -123 -289 3 -14 127 -367 275 -784 148 -418 268
-765 266 -770 -4 -10 -528 -167 -552 -166 -6 0 -26 45 -44 101 -30 93 -36 102
-67 115 -28 12 -152 14 -721 14 l-688 0 -172 723 -172 722 330 325 c355 350
353 347 308 404 -12 15 -150 145 -308 289 -157 144 -286 265 -286 269 0 17
391 517 401 513 6 -2 378 -265 825 -586z"/>
<path d="M2892 2394 c-155 -152 -284 -285 -287 -297 -3 -12 53 -269 125 -572
99 -420 135 -555 150 -570 20 -19 35 -20 548 -22 570 -3 564 -4 590 50 13 26
-1 72 -209 690 -122 364 -229 673 -237 687 -14 23 -129 132 -273 258 -99 86
-78 97 -407 -224z m436 -18 l110 -100 196 -585 c108 -322 196 -589 196 -594 0
-4 -188 -6 -417 -5 l-417 3 -113 475 -113 475 218 218 c119 119 220 216 223
215 4 -2 56 -48 117 -102z"/>
<path d="M803 3843 c-28 -11 -268 -355 -393 -563 -84 -139 -184 -346 -216
-445 -53 -165 -40 -318 41 -482 79 -160 214 -278 390 -340 72 -25 93 -28 215
-28 122 0 143 3 217 28 237 82 411 285 454 531 31 183 -34 383 -238 729 -108
183 -339 518 -385 560 -19 16 -59 21 -85 10z m154 -375 c140 -207 217 -335
291 -484 91 -182 106 -232 105 -344 -1 -150 -47 -253 -161 -362 -98 -93 -212
-138 -352 -138 -143 0 -258 48 -361 150 -144 141 -191 328 -129 510 29 88 105
241 188 381 83 140 291 449 302 449 4 0 57 -73 117 -162z"/>
</g>
</svg>
